<svg width="94" height="83" viewBox="0 0 94 83" fill="none" xmlns="http://www.w3.org/2000/svg">
<path d="M24.4162 32.8195C24.4162 16.3925 52.3249 7.05496 60.6941 11.8966C69.0979 16.7383 69.0287 48.97 60.6941 53.777C52.3249 58.6187 24.4162 49.2812 24.4162 32.8195Z" fill="url(#paint0_linear_1_41)"/>
<path d="M24.4162 32.8195C24.4162 16.3925 52.3249 7.05496 60.6941 11.8966C69.0979 16.7383 69.0287 48.97 60.6941 53.777C52.3249 58.6187 24.4162 49.2812 24.4162 32.8195Z" fill="white" fill-opacity="0.5"/>
<path d="M63.8411 67.5062C59.5528 67.5062 55.1953 64.532 55.1953 58.8603C55.1953 55.3328 57.0974 52.4278 60.0024 51.0445L51.5986 19.4008C46.9645 19.3316 43.0565 19.4353 39.4253 19.712L39.1486 16.2537C43.2295 15.9424 47.5869 15.8387 52.9474 15.9424L54.2615 15.977L63.3224 50.2145C68.3715 49.9724 72.4524 53.742 72.4524 58.8603C72.4869 63.8058 68.7519 67.5062 63.8411 67.5062ZM63.8411 53.6728C60.8324 53.6728 58.6536 55.8516 58.6536 58.8603C58.6536 62.6991 61.4549 64.0478 63.8411 64.0478C66.8499 64.0478 69.0286 61.8691 69.0286 58.8603C69.0286 55.8516 66.8499 53.6728 63.8411 53.6728ZM19.1594 67.5062C14.8711 67.5062 10.5136 64.532 10.5136 58.8603C10.5136 53.9149 14.214 50.2145 19.1594 50.2145C23.4824 50.2145 26.8715 53.0849 27.6324 57.1312H37.5924C41.5695 57.1312 43.4369 56.3703 46.3074 53.6728C48.7628 51.3212 51.1144 48.8312 53.2932 46.2374L55.9561 48.4508C53.7082 51.1483 51.2528 53.742 48.6936 56.1628C45.1661 59.5174 42.4686 60.5895 37.5924 60.5895H27.6669C26.9061 64.6358 23.5169 67.5062 19.1594 67.5062ZM19.1594 53.6728C16.1507 53.6728 13.9719 55.8516 13.9719 58.8603C13.9719 62.6991 16.7732 64.0478 19.1594 64.0478C22.1682 64.0478 24.3469 61.8691 24.3469 58.8603C24.3469 55.8516 22.1682 53.6728 19.1594 53.6728ZM62.9074 24.0349H60.6594C59.4144 24.0349 58.3769 23.032 58.3769 21.7524C58.3769 20.5074 59.3799 19.5045 60.6594 19.5045H62.9074V24.0349Z" fill="#21201F"/>
<path d="M78.124 16.4157L67.6918 5.53246L69.4178 3.74023L79.8754 14.6235L78.124 16.4157ZM69.4178 16.4157L67.6918 14.6235L78.1748 3.74023L79.8754 5.53246L69.4178 16.4157Z" fill="#21201F"/>
<path d="M84.8655 10.5975V7.79223H87.2007C87.776 7.79223 88.2752 7.69699 88.6982 7.50651C89.1213 7.29871 89.4513 7.00434 89.6882 6.62338C89.9251 6.22511 90.0435 5.74891 90.0435 5.19479C90.0435 4.6753 89.9251 4.23374 89.6882 3.8701C89.4682 3.50646 89.1382 3.2294 88.6982 3.03892C88.2583 2.83112 87.7168 2.72723 87.0738 2.72723C86.2784 2.72723 85.517 2.87441 84.7893 3.16879C84.0786 3.44585 83.3171 3.90473 82.5049 4.54543V1.5324C82.9787 1.18608 83.4694 0.900362 83.9771 0.675251C84.4847 0.45014 85.0347 0.285635 85.627 0.181738C86.2192 0.060525 86.8538 -8.15392e-05 87.5307 -8.15392e-05C88.7152 -8.15392e-05 89.7389 0.207714 90.6019 0.623303C91.465 1.03889 92.1334 1.61899 92.6072 2.36358C93.081 3.10818 93.3179 3.96534 93.3179 4.93505C93.3179 5.55843 93.2079 6.12121 92.9879 6.62338C92.7679 7.12555 92.4803 7.5498 92.1249 7.89612C91.7695 8.24245 91.3634 8.51951 90.9065 8.7273C90.4496 8.9351 89.9843 9.06497 89.5105 9.11692V9.01302C90.0858 9.06497 90.6358 9.2035 91.1604 9.42861C91.7019 9.63641 92.1841 9.93078 92.6072 10.3117C93.0302 10.6927 93.3602 11.1516 93.5971 11.6884C93.8509 12.2252 93.9778 12.8399 93.9778 13.5326C93.9778 14.6581 93.6986 15.6451 93.1402 16.4936C92.5818 17.3248 91.8034 17.9742 90.805 18.4417C89.8066 18.8919 88.639 19.117 87.3022 19.117C86.6253 19.117 85.9739 19.0564 85.3477 18.9352C84.7216 18.8313 84.1378 18.6668 83.5963 18.4417C83.0549 18.1993 82.5557 17.9136 82.0988 17.5846V14.5715C82.8941 15.1949 83.6894 15.6538 84.4847 15.9482C85.2801 16.2426 86.1346 16.3897 87.0484 16.3897C87.8268 16.3897 88.4783 16.2685 89.0028 16.0261C89.5274 15.7837 89.9166 15.446 90.1704 15.0131C90.4412 14.5629 90.5766 14.0261 90.5766 13.4027C90.5766 12.7793 90.4496 12.2598 90.1958 11.8442C89.942 11.4286 89.5613 11.1169 89.0536 10.9091C88.546 10.7014 87.8945 10.5975 87.0991 10.5975H84.8655Z" fill="#21201F"/>
<defs>
<linearGradient id="paint0_linear_1_41" x1="24.4162" y1="32.8367" x2="66.971" y2="32.8367" gradientUnits="userSpaceOnUse">
<stop stop-color="#FF5C4D"/>
<stop offset="0.25" stop-color="#EB469F"/>
<stop offset="0.72" stop-color="#8341EF"/>
<stop offset="1" stop-color="#3F68F9"/>
</linearGradient>
</defs>
</svg>
