<svg width="83" height="83" viewBox="0 0 83 83" fill="none" xmlns="http://www.w3.org/2000/svg">
<path d="M8.06453 63.8356C-5.85806 48.5352 12.7903 15.6679 24.8591 12.9294C36.9609 10.1609 64.2127 40.2418 60.3544 51.9373C56.4925 63.695 22.0164 79.1682 8.06453 63.8356Z" fill="url(#paint0_linear_1_35)"/>
<path d="M8.06453 63.8356C-5.85806 48.5352 12.7903 15.6679 24.8591 12.9294C36.9609 10.1609 64.2127 40.2418 60.3544 51.9373C56.4925 63.695 22.0164 79.1682 8.06453 63.8356Z" fill="white" fill-opacity="0.5"/>
<path d="M30.4004 60.5721C28.7104 60.4559 27.1604 59.9997 25.7502 59.2036C24.3754 58.3766 23.2092 57.1811 22.2513 55.617C21.3289 54.0221 20.6481 52.0609 20.2088 49.7335C19.7719 47.3729 19.6628 44.602 19.8815 41.4209C20.1002 38.2398 20.5865 35.5265 21.3401 33.2811C22.0961 31.0026 23.039 29.153 24.1687 27.7325C25.3317 26.3143 26.6495 25.3062 28.1222 24.7083C29.6281 24.1127 31.226 23.873 32.9159 23.9892C34.6059 24.1054 36.1394 24.5605 37.5164 25.3543C38.8935 26.1481 40.0443 27.326 40.969 28.8877C41.896 30.4164 42.5625 32.3433 42.9687 34.6685C43.4079 36.9959 43.5181 39.7502 43.2994 42.9313C43.0806 46.1124 42.5933 48.8423 41.8373 51.1208C41.1168 53.3685 40.1905 55.2192 39.0584 56.6728C37.9264 58.1265 36.6229 59.1688 35.1479 59.7999C33.6728 60.4309 32.0904 60.6883 30.4004 60.5721ZM30.6207 56.642C31.7473 56.7194 32.7585 56.5393 33.6543 56.1015C34.55 55.6637 35.3348 54.9019 36.0088 53.8163C36.6827 52.7307 37.2314 51.2869 37.655 49.4849C38.114 47.652 38.4346 45.4101 38.6169 42.7592C38.7992 40.1082 38.8038 37.8612 38.6309 36.0182C38.4603 34.1421 38.1155 32.6201 37.5965 31.4525C37.0775 30.2848 36.4043 29.4228 35.577 28.8666C34.7496 28.3103 33.7726 27.9934 32.6459 27.9159C31.5193 27.8384 30.4915 28.0175 29.5627 28.453C28.6669 28.8908 27.8655 29.6514 27.1585 30.7347C26.4845 31.8204 25.9181 33.2796 25.4591 35.1125C25.0356 36.9145 24.7326 39.141 24.5504 41.7919C24.3681 44.4428 24.3622 46.7064 24.5329 48.5825C24.7389 50.4278 25.1014 51.9343 25.6204 53.102C26.1394 54.2696 26.8126 55.1316 27.64 55.6879C28.5005 56.2465 29.4941 56.5645 30.6207 56.642Z" fill="#21201F"/>
<path d="M54.3103 41.9905L55.4109 25.9855L63.811 26.5631C67.5223 26.8183 70.3494 27.8284 72.2922 29.5934C74.2682 31.3606 75.1434 33.8845 74.9178 37.165C74.8016 38.855 74.4031 40.2925 73.7223 41.4776C73.0747 42.6649 72.1768 43.6186 71.0286 44.3387C69.9158 45.0279 68.6002 45.5201 67.0817 45.8152C65.5654 46.0771 63.8961 46.1455 62.0736 46.0201L58.7433 45.7911L58.4528 50.0161L68.8412 50.7304L68.6019 54.2097L58.2136 53.4954L57.6325 61.9453L52.9602 61.624L53.5413 53.1741L49.4655 52.8939L49.7047 49.4145L53.7805 49.6948L54.0711 45.4699L49.9953 45.1896L50.2345 41.7102L54.3103 41.9905ZM59.8063 30.3329L58.9826 42.3118L62.3128 42.5408C64.7318 42.7071 66.6051 42.3365 67.9326 41.429C69.2956 40.4906 70.05 38.9611 70.1958 36.8403C70.3302 34.8853 69.866 33.4051 68.8032 32.3998C67.7758 31.3636 66.0194 30.7601 63.5342 30.5892L59.8063 30.3329Z" fill="#21201F"/>
<defs>
<linearGradient id="paint0_linear_1_35" x1="8.07898" y1="63.8518" x2="48.5806" y2="26.9973" gradientUnits="userSpaceOnUse">
<stop stop-color="#FF5C4D"/>
<stop offset="0.25" stop-color="#EB469F"/>
<stop offset="0.72" stop-color="#8341EF"/>
<stop offset="1" stop-color="#3F68F9"/>
</linearGradient>
</defs>
</svg>
